<svg width="62" height="62" viewBox="0 0 62 62" fill="none" xmlns="http://www.w3.org/2000/svg">
<g id="ph:bell-light">
<path id="Vector" d="M53.2983 42.8527C51.9276 40.4938 49.8908 33.8409 49.8908 25.1875C49.8908 20.1774 47.9005 15.3725 44.3578 11.8298C40.8151 8.28713 36.0102 6.29688 31.0001 6.29688C25.99 6.29688 21.1851 8.28713 17.6424 11.8298C14.0998 15.3725 12.1095 20.1774 12.1095 25.1875C12.1095 33.8433 10.0703 40.4938 8.69951 42.8527C8.39875 43.3677 8.23916 43.9529 8.23684 44.5493C8.23452 45.1457 8.38956 45.7322 8.68631 46.2495C8.98306 46.7669 9.41101 47.1968 9.927 47.4959C10.443 47.795 11.0287 47.9527 11.6251 47.9531H21.9133C22.2662 50.1073 23.3733 52.0658 25.037 53.4791C26.7006 54.8923 28.8124 55.6682 30.9953 55.6682C33.1782 55.6682 35.29 54.8923 36.9536 53.4791C38.6172 52.0658 39.7244 50.1073 40.0773 47.9531H50.3751C50.9711 47.9519 51.5563 47.7935 52.0716 47.4941C52.5869 47.1946 53.0142 46.7646 53.3103 46.2474C53.6065 45.7302 53.7611 45.1441 53.7586 44.5481C53.7561 43.9521 53.5965 43.3673 53.2959 42.8527H53.2983ZM31.0001 52.7969C29.5831 52.7964 28.2077 52.318 27.0962 51.4391C25.9847 50.5601 25.2022 49.3319 24.8752 47.9531H37.1251C36.798 49.3319 36.0155 50.5601 34.9041 51.4391C33.7926 52.318 32.4172 52.7964 31.0001 52.7969ZM50.7893 44.8047C50.7494 44.8789 50.6899 44.9407 50.6173 44.9834C50.5447 45.0261 50.4618 45.0481 50.3776 45.0469H11.6251C11.5409 45.0481 11.458 45.0261 11.3854 44.9834C11.3128 44.9407 11.2533 44.8789 11.2134 44.8047C11.1709 44.7311 11.1485 44.6475 11.1485 44.5625C11.1485 44.4775 11.1709 44.3939 11.2134 44.3203C13.0468 41.1719 15.0158 33.8312 15.0158 25.1875C15.0158 20.9482 16.6998 16.8825 19.6975 13.8848C22.6951 10.8872 26.7608 9.20312 31.0001 9.20312C35.2395 9.20312 39.3051 10.8872 42.3028 13.8848C45.3004 16.8825 46.9845 20.9482 46.9845 25.1875C46.9845 33.8288 48.9559 41.1598 50.7893 44.3203C50.8318 44.3939 50.8542 44.4775 50.8542 44.5625C50.8542 44.6475 50.8318 44.7311 50.7893 44.8047Z" fill="#545454"/>
</g>
</svg>
