<svg width="85" height="68" viewBox="0 0 85 68" fill="none" xmlns="http://www.w3.org/2000/svg">
<path id="Vector" d="M0 8.48383C0 6.23378 0.893829 4.07588 2.48485 2.48485C4.07588 0.893829 6.23378 0 8.48383 0H76.3544C78.6045 0 80.7624 0.893829 82.3534 2.48485C83.9444 4.07588 84.8383 6.23378 84.8383 8.48383V59.3868C84.8383 61.6368 83.9444 63.7947 82.3534 65.3857C80.7624 66.9768 78.6045 67.8706 76.3544 67.8706H8.48383C6.23378 67.8706 4.07588 66.9768 2.48485 65.3857C0.893829 63.7947 0 61.6368 0 59.3868V8.48383ZM14.9273 8.48383L42.4191 32.5397L69.911 8.48383H14.9273ZM76.3544 14.1213L45.2146 41.3714C44.441 42.0491 43.4476 42.4228 42.4191 42.4228C41.3907 42.4228 40.3972 42.0491 39.6237 41.3714L8.48383 14.1213V59.3868H76.3544V14.1213Z" fill="#545454"/>
</svg>
