<svg width="88" height="88" viewBox="0 0 88 88" fill="none" xmlns="http://www.w3.org/2000/svg">
<g id="Group">
<path id="Vector" d="M66.6532 0.870605H20.404C9.13519 0.870605 0 10.0058 0 21.2746V67.5238C0 78.7926 9.13519 87.9278 20.404 87.9278H66.6532C77.922 87.9278 87.0572 78.7926 87.0572 67.5238V21.2746C87.0572 10.0058 77.922 0.870605 66.6532 0.870605Z" fill="url(#paint0_radial_365_1030)"/>
<path id="Vector_2" d="M66.6532 0.870605H20.404C9.13519 0.870605 0 10.0058 0 21.2746V67.5238C0 78.7926 9.13519 87.9278 20.404 87.9278H66.6532C77.922 87.9278 87.0572 78.7926 87.0572 67.5238V21.2746C87.0572 10.0058 77.922 0.870605 66.6532 0.870605Z" fill="url(#paint1_radial_365_1030)"/>
<path id="Vector_3" d="M43.5315 10.3921C34.296 10.3921 33.1367 10.4326 29.5095 10.5975C25.8892 10.7634 23.4179 11.3365 21.2557 12.1774C19.0188 13.046 17.1215 14.208 15.2315 16.0988C13.3397 17.9892 12.1777 19.8864 11.3064 22.1224C10.463 24.2852 9.88934 26.7575 9.72645 30.3761C9.56424 34.0036 9.52173 35.1633 9.52173 44.3991C9.52173 53.635 9.56254 54.7906 9.72713 58.4177C9.89376 62.0381 10.4668 64.5093 11.3071 66.6715C12.1763 68.9084 13.3383 70.8057 15.2291 72.6958C17.1188 74.5876 19.0161 75.7523 21.2513 76.6208C23.4152 77.4618 25.8868 78.0348 29.5065 78.2008C33.1339 78.3657 34.2922 78.4062 43.5274 78.4062C52.764 78.4062 53.9195 78.3657 57.5467 78.2008C61.167 78.0348 63.641 77.4618 65.8049 76.6208C68.0408 75.7523 69.9353 74.5876 71.8247 72.6958C73.7165 70.8057 74.8782 68.9084 75.7498 66.6725C76.5857 64.5093 77.1597 62.0374 77.3297 58.4184C77.4926 54.7912 77.5351 53.635 77.5351 44.3991C77.5351 35.1633 77.4926 34.0043 77.3297 30.3768C77.1597 26.7565 76.5857 24.2855 75.7498 22.1234C74.8782 19.8864 73.7165 17.9892 71.8247 16.0988C69.9333 14.2073 68.0415 13.0453 65.8028 12.1778C63.6349 11.3365 61.1623 10.7631 57.5419 10.5975C53.9144 10.4326 52.7596 10.3921 43.521 10.3921H43.5315ZM40.4808 16.5204C41.3864 16.5191 42.3967 16.5204 43.5315 16.5204C52.6116 16.5204 53.6876 16.5531 57.2733 16.716C60.5889 16.8676 62.3886 17.4216 63.5873 17.8872C65.1744 18.5034 66.3058 19.2403 67.4953 20.4309C68.6856 21.6211 69.4222 22.7545 70.0401 24.3416C70.5056 25.5387 71.0603 27.3383 71.2113 30.654C71.3742 34.239 71.4095 35.3156 71.4095 44.3913C71.4095 53.467 71.3742 54.544 71.2113 58.1287C71.0596 61.4443 70.5056 63.2439 70.0401 64.4413C69.4239 66.0284 68.6856 67.1585 67.4953 68.348C66.3051 69.5383 65.1751 70.2748 63.5873 70.8914C62.3899 71.359 60.5889 71.9116 57.2733 72.0633C53.6883 72.2261 52.6116 72.2615 43.5315 72.2615C34.451 72.2615 33.3747 72.2261 29.7901 72.0633C26.4744 71.9102 24.6748 71.3563 23.475 70.8907C21.8883 70.2742 20.7545 69.5376 19.5642 68.3473C18.374 67.1571 17.6374 66.0264 17.0195 64.4386C16.554 63.2412 15.9993 61.4416 15.8483 58.1259C15.6854 54.541 15.6528 53.4643 15.6528 44.3828C15.6528 35.3017 15.6854 34.2304 15.8483 30.6455C16 27.3298 16.554 25.5302 17.0195 24.3314C17.6361 22.7443 18.374 21.6109 19.5646 20.4207C20.7548 19.2304 21.8883 18.4935 23.4754 17.8759C24.6741 17.4084 26.4744 16.8557 29.7901 16.7034C32.9272 16.5616 34.1429 16.5191 40.4808 16.5119V16.5204ZM61.6843 22.1669C59.4313 22.1669 57.6035 23.9931 57.6035 26.2464C57.6035 28.4993 59.4313 30.3272 61.6843 30.3272C63.9372 30.3272 65.7651 28.4993 65.7651 26.2464C65.7651 23.9934 63.9372 22.1656 61.6843 22.1656V22.1669ZM43.5315 26.935C33.8872 26.935 26.0677 34.7545 26.0677 44.3991C26.0677 54.0438 33.8872 61.8595 43.5315 61.8595C53.1761 61.8595 60.9929 54.0438 60.9929 44.3991C60.9929 34.7548 53.1755 26.935 43.5308 26.935H43.5315ZM43.5315 33.0633C49.7918 33.0633 54.8673 38.1382 54.8673 44.3991C54.8673 50.6594 49.7918 55.7349 43.5315 55.7349C37.2709 55.7349 32.196 50.6594 32.196 44.3991C32.196 38.1382 37.2709 33.0633 43.5315 33.0633Z" fill="white"/>
</g>
<defs>
<radialGradient id="paint0_radial_365_1030" cx="0" cy="0" r="1" gradientUnits="userSpaceOnUse" gradientTransform="translate(23.1246 94.6329) rotate(-90) scale(86.2801 80.2473)">
<stop stop-color="#FFDD55"/>
<stop offset="0.1" stop-color="#FFDD55"/>
<stop offset="0.5" stop-color="#FF543E"/>
<stop offset="1" stop-color="#C837AB"/>
</radialGradient>
<radialGradient id="paint1_radial_365_1030" cx="0" cy="0" r="1" gradientUnits="userSpaceOnUse" gradientTransform="translate(-14.5824 7.14178) rotate(78.681) scale(38.5677 158.977)">
<stop stop-color="#3771C8"/>
<stop offset="0.128" stop-color="#3771C8"/>
<stop offset="1" stop-color="#6600FF" stop-opacity="0"/>
</radialGradient>
</defs>
</svg>
