<svg width="47" height="48" viewBox="0 0 47 48" fill="none" xmlns="http://www.w3.org/2000/svg">
<g id="ph:plus-thin">
<path id="Vector" d="M40.3906 24.3343C40.3906 24.5291 40.3133 24.7158 40.1755 24.8536C40.0378 24.9913 39.851 25.0687 39.6563 25.0687L24.2344 25.0687L24.2344 40.4905C24.2344 40.6853 24.157 40.8721 24.0193 41.0098C23.8816 41.1475 23.6948 41.2249 23.5 41.2249C23.3052 41.2249 23.1184 41.1475 22.9807 41.0098C22.843 40.8721 22.7656 40.6853 22.7656 40.4905L22.7656 25.0687L7.34375 25.0687C7.14898 25.0687 6.96219 24.9913 6.82447 24.8536C6.68675 24.7158 6.60938 24.5291 6.60938 24.3343C6.60938 24.1395 6.68675 23.9527 6.82447 23.815C6.96219 23.6773 7.14898 23.5999 7.34375 23.5999L22.7656 23.5999L22.7656 8.17804C22.7656 7.98327 22.843 7.79648 22.9807 7.65876C23.1184 7.52104 23.3052 7.44366 23.5 7.44366C23.6948 7.44366 23.8816 7.52104 24.0193 7.65876C24.157 7.79648 24.2344 7.98327 24.2344 8.17804L24.2344 23.5999L39.6563 23.5999C39.851 23.5999 40.0378 23.6773 40.1755 23.815C40.3133 23.9527 40.3906 24.1395 40.3906 24.3343Z" fill="#545454"/>
<rect x="0.5" y="1.33429" width="46" height="46" rx="23" stroke="black"/>
</g>
</svg>
