<svg width="39" height="39" viewBox="0 0 39 39" fill="none" xmlns="http://www.w3.org/2000/svg">
<g id="mingcute:arrow-right-line" clip-path="url(#clip0_365_115)">
<g id="Group">
<path id="Vector" d="M23.8989 9.1585L33.0915 18.3511C33.3961 18.6559 33.5673 19.0691 33.5673 19.5C33.5673 19.9309 33.3961 20.3441 33.0915 20.6489L23.8989 29.8415C23.5924 30.1375 23.1819 30.3013 22.7558 30.2976C22.3298 30.2939 21.9222 30.123 21.6209 29.8217C21.3196 29.5204 21.1487 29.1128 21.145 28.6868C21.1413 28.2607 21.3051 27.8502 21.6011 27.5438L28.0199 21.125H6.5C6.06902 21.125 5.6557 20.9538 5.35095 20.649C5.0462 20.3443 4.875 19.931 4.875 19.5C4.875 19.069 5.0462 18.6557 5.35095 18.351C5.6557 18.0462 6.06902 17.875 6.5 17.875H28.0199L21.6011 11.4563C21.4459 11.3063 21.3221 11.127 21.237 10.9288C21.1518 10.7305 21.107 10.5173 21.1051 10.3015C21.1032 10.0858 21.1443 9.87178 21.226 9.67207C21.3077 9.47237 21.4284 9.29093 21.581 9.13836C21.7336 8.98578 21.915 8.86512 22.1147 8.78342C22.3144 8.70171 22.5284 8.66059 22.7442 8.66247C22.9599 8.66434 23.1731 8.70917 23.3714 8.79434C23.5697 8.8795 23.749 9.0033 23.8989 9.1585Z" fill="white"/>
</g>
</g>
<defs>
<clipPath id="clip0_365_115">
<rect width="39" height="39" fill="white"/>
</clipPath>
</defs>
</svg>
