<svg width="48" height="48" viewBox="0 0 48 48" fill="none" xmlns="http://www.w3.org/2000/svg">
<g id="svgexport-11">
<path id="Vector" d="M5.5 38H14.5C14.78 38 15 37.78 15 37.5V24.5C15 24.3674 14.9473 24.2402 14.8536 24.1464C14.7598 24.0527 14.6326 24 14.5 24H5.5C5.36739 24 5.24021 24.0527 5.14645 24.1464C5.05268 24.2402 5 24.3674 5 24.5V37.5C5 37.78 5.22 38 5.5 38ZM19.5 38H28.5C28.78 38 29 37.78 29 37.5V16.5C29 16.3674 28.9473 16.2402 28.8536 16.1464C28.7598 16.0527 28.6326 16 28.5 16H19.5C19.3674 16 19.2402 16.0527 19.1464 16.1464C19.0527 16.2402 19 16.3674 19 16.5V37.5C19 37.78 19.22 38 19.5 38ZM33.5 38H42.5C42.78 38 43 37.78 43 37.5V8.5C43 8.36739 42.9473 8.24021 42.8536 8.14645C42.7598 8.05268 42.6326 8 42.5 8H33.5C33.3674 8 33.2402 8.05268 33.1464 8.14645C33.0527 8.24021 33 8.36739 33 8.5V37.5C33 37.78 33.22 38 33.5 38Z" stroke="#757575"/>
</g>
</svg>
