<svg width="88" height="88" viewBox="0 0 88 88" fill="none" xmlns="http://www.w3.org/2000/svg">
<g id="Group">
<path id="Vector" d="M66.6532 0.927734H20.404C9.13519 0.927734 0 10.0629 0 21.3318V67.5809C0 78.8497 9.13519 87.9849 20.404 87.9849H66.6532C77.922 87.9849 87.0572 78.8497 87.0572 67.5809V21.3318C87.0572 10.0629 77.922 0.927734 66.6532 0.927734Z" fill="white"/>
<path id="Vector_2" d="M66.6532 0.927734H20.404C9.13519 0.927734 0 10.0629 0 21.3318V67.5809C0 78.8497 9.13519 87.9849 20.404 87.9849H66.6532C77.922 87.9849 87.0572 78.8497 87.0572 67.5809V21.3318C87.0572 10.0629 77.922 0.927734 66.6532 0.927734Z" fill="#1D9BF0"/>
<path id="Vector_3" d="M67.8677 32.0135C67.9051 32.5532 67.9051 33.0929 67.9051 33.6377C67.9051 50.2319 55.2723 69.3702 32.1725 69.3702V69.36C25.3485 69.3699 18.6658 67.4155 12.9224 63.7302C13.9147 63.8496 14.9118 63.9091 15.9116 63.9115C21.5674 63.9159 27.0606 62.0189 31.5084 58.5251C28.8878 58.4756 26.3482 57.6084 24.2447 56.0447C22.1412 54.4811 20.5788 52.2992 19.7761 49.8041C21.6576 50.1669 23.5973 50.0929 25.4457 49.5878C19.587 48.4041 15.3719 43.2565 15.3719 37.2781V37.1189C17.1184 38.0917 19.0731 38.6308 21.0714 38.6907C15.5535 35.0027 13.8524 27.6617 17.1844 21.922C20.3373 25.8018 24.2711 28.975 28.7302 31.2354C33.1894 33.4959 38.0741 34.793 43.0673 35.0425C42.5694 32.8995 42.643 30.6634 43.2805 28.5578C43.9181 26.4521 45.0973 24.5508 46.7002 23.0439C51.7584 18.2891 59.7136 18.5329 64.4684 23.5884C67.2807 23.0331 69.9777 22.0021 72.4433 20.5397C71.5057 23.4474 69.5439 25.9157 66.9226 27.4852C69.4122 27.1919 71.8433 26.5255 74.1344 25.5084C72.4491 28.0323 70.3269 30.235 67.8677 32.0135Z" fill="white"/>
</g>
</svg>
