<svg width="44" height="48" viewBox="0 0 44 48" fill="none" xmlns="http://www.w3.org/2000/svg">
<path id="Vector" fill-rule="evenodd" clip-rule="evenodd" d="M16.5161 0H29.6302C32.5643 0 34.9317 -3.32668e-08 36.7926 0.261202C38.7243 0.529101 40.3512 1.10955 41.6433 2.45128C42.9354 3.79524 43.4892 5.48747 43.751 7.49672C44 9.43229 44 11.8947 44 14.9466V33.0521C44 36.1039 44 38.5664 43.751 40.5019C43.4892 42.5112 42.9354 44.2034 41.6433 45.5474C40.3512 46.8913 38.7243 47.4673 36.7926 47.7397C34.9317 47.9986 32.5643 47.9986 29.6302 47.9986H16.5161L14.5865 47.9964C14.5151 48.0012 14.4434 48.0012 14.3719 47.9964C12.4016 47.9808 10.7381 47.9317 9.35376 47.7397C7.42205 47.4673 5.79512 46.8913 4.50302 45.5474C3.21093 44.2034 2.65717 42.5112 2.39746 40.5019C2.18927 38.9057 2.15493 36.9523 2.14849 34.6037H1.60976C1.18282 34.6037 0.773375 34.4273 0.471487 34.1133C0.169599 33.7993 0 33.3734 0 32.9293C0 32.4852 0.169599 32.0594 0.471487 31.7453C0.773375 31.4313 1.18282 31.2549 1.60976 31.2549H2.14634V25.6737H1.60976C1.18282 25.6737 0.773375 25.4973 0.471487 25.1833C0.169599 24.8693 0 24.4434 0 23.9993C0 23.5553 0.169599 23.1294 0.471487 22.8154C0.773375 22.5014 1.18282 22.325 1.60976 22.325H2.14634V16.7437H1.60976C1.18282 16.7437 0.773375 16.5673 0.471487 16.2533C0.169599 15.9393 0 15.5134 0 15.0693C0 14.6253 0.169599 14.1994 0.471487 13.8854C0.773375 13.5714 1.18282 13.395 1.60976 13.395H2.14634C2.15493 11.0464 2.18927 9.09295 2.39746 7.49672C2.65502 5.48747 3.21307 3.79524 4.50302 2.45128C5.79512 1.10732 7.42205 0.531334 9.35376 0.261202C11.2146 -3.32668e-08 13.582 0 16.5161 0ZM5.36585 16.7437H5.90244C6.32937 16.7437 6.73882 16.5673 7.04071 16.2533C7.3426 15.9393 7.5122 15.5134 7.5122 15.0693C7.5122 14.6253 7.3426 14.1994 7.04071 13.8854C6.73882 13.5714 6.32937 13.395 5.90244 13.395H5.36585C5.37444 11.0598 5.40878 9.31844 5.58693 7.94322C5.79941 6.30457 6.1879 5.43836 6.78029 4.81996C7.37483 4.20156 8.20761 3.79971 9.78517 3.57869C10.6437 3.45814 11.6568 3.40009 12.878 3.3733V44.6276C11.8435 44.6178 10.8103 44.5493 9.78302 44.4222C8.20761 44.2012 7.37483 43.7971 6.78029 43.1809C6.18576 42.5625 5.79941 41.6963 5.58693 40.0554C5.40878 38.6824 5.37444 36.9411 5.368 34.6059H5.90244C6.32937 34.6059 6.73882 34.4295 7.04071 34.1155C7.3426 33.8015 7.5122 33.3756 7.5122 32.9315C7.5122 32.4875 7.3426 32.0616 7.04071 31.7476C6.73882 31.4336 6.32937 31.2572 5.90244 31.2572H5.36585V25.6759H5.90244C6.32937 25.6759 6.73882 25.4995 7.04071 25.1855C7.3426 24.8715 7.5122 24.4456 7.5122 24.0016C7.5122 23.5575 7.3426 23.1316 7.04071 22.8176C6.73882 22.5036 6.32937 22.3272 5.90244 22.3272H5.36585V16.7459V16.7437ZM16.0976 44.6499H29.5122C32.5922 44.6499 34.7407 44.6454 36.3633 44.42C37.9387 44.1989 38.7715 43.7949 39.3661 43.1787C39.9606 42.5603 40.3469 41.6941 40.5594 40.0532C40.7762 38.3677 40.7805 36.1329 40.7805 32.9293V15.0693C40.7805 11.8657 40.7762 9.62875 40.5594 7.94322C40.3469 6.30457 39.9584 5.43836 39.3661 4.81996C38.7715 4.20156 37.9387 3.79971 36.3612 3.57869C34.7407 3.35321 32.5922 3.34874 29.5122 3.34874H16.0976V44.6499ZM20.3902 11.7206C20.3902 11.2765 20.5598 10.8506 20.8617 10.5366C21.1636 10.2226 21.5731 10.0462 22 10.0462H32.7317C33.1586 10.0462 33.5681 10.2226 33.87 10.5366C34.1719 10.8506 34.3415 11.2765 34.3415 11.7206C34.3415 12.1647 34.1719 12.5906 33.87 12.9046C33.5681 13.2186 33.1586 13.395 32.7317 13.395H22C21.5731 13.395 21.1636 13.2186 20.8617 12.9046C20.5598 12.5906 20.3902 12.1647 20.3902 11.7206ZM20.3902 19.5343C20.3902 19.0903 20.5598 18.6644 20.8617 18.3504C21.1636 18.0364 21.5731 17.86 22 17.86H32.7317C33.1586 17.86 33.5681 18.0364 33.87 18.3504C34.1719 18.6644 34.3415 19.0903 34.3415 19.5343C34.3415 19.9784 34.1719 20.4043 33.87 20.7183C33.5681 21.0323 33.1586 21.2087 32.7317 21.2087H22C21.5731 21.2087 21.1636 21.0323 20.8617 20.7183C20.5598 20.4043 20.3902 19.9784 20.3902 19.5343Z" fill="#545454"/>
</svg>
